<svg fill="#0000000D" height="350" viewBox="0 0 700 350" width="700" xmlns="http://www.w3.org/2000/svg" xmlns:xlink="http://www.w3.org/1999/xlink"><defs><g id="a" transform="matrix(.0884828 -.06095482 .06095482 .0884828 -26.256105 187.952774)"><path d="m509.026 2.885c-2.732-2.696-6.771-3.596-10.384-2.302l-415.353 148.097c-14.43-8.824-32.733-10.89-49.52-3.939-27.865 11.543-41.146 43.604-29.604 71.471 27.219 65.708 66.518 124.525 116.809 174.816s109.107 89.591 174.816 116.809c6.824 2.826 13.897 4.164 20.861 4.164 21.475-.001 41.894-12.726 50.609-33.769 5.864-14.158 5.31-29.396-.299-42.48l144.501-422.514c1.242-3.632.296-7.656-2.436-10.353zm-362.847 144.604 44.02-15.694c5.168 5.506 7.687 13.086 6.678 20.752-.89 6.75-4.354 12.751-9.755 16.896s-12.089 5.936-18.844 5.049c-6.749-.889-12.749-4.352-16.894-9.754-3.819-4.977-5.636-11.049-5.205-17.249zm202.603 323.088c-7.322 17.678-27.664 26.103-45.338 18.779-128.04-53.035-227.763-152.759-280.8-280.799-3.547-8.563-3.547-17.994 0-26.558 3.547-8.563 10.216-15.232 18.779-18.779s17.995-3.547 26.558 0 15.232 10.216 18.779 18.779c22.701 54.807 55.481 103.865 97.429 145.813s91.006 74.727 145.813 97.429c17.678 7.321 26.103 27.66 18.78 45.336zm88.843-303.248c-.905-.022-1.811-.074-2.715-.192-6.749-.889-12.749-4.353-16.893-9.754-4.145-5.401-5.938-12.094-5.05-18.843 1.835-13.934 14.66-23.776 28.599-21.944 4.3.566 8.337 2.234 11.78 4.771zm22.368-65.406c-4.872-2.653-10.225-4.42-15.817-5.156-24.871-3.283-47.764 14.294-51.038 39.163-1.586 12.046 1.614 23.989 9.011 33.629 7.125 9.285 17.325 15.351 28.831 17.201l-19.876 58.119-22.858-17.54c-4.381-3.36-10.66-2.536-14.021 1.846-3.362 4.382-2.535 10.659 1.846 14.021l28.205 21.642-51.694 151.155c-4.336-3.77-9.329-6.924-14.922-9.241-105.98-43.899-188.52-126.439-232.417-232.417-1.526-3.686-3.422-7.108-5.609-10.26l26.779-9.548c.935 8.068 4.032 15.764 9.105 22.375 7.396 9.64 18.105 15.822 30.151 17.407 2.018.266 4.03.398 6.032.398 9.948 0 19.572-3.25 27.597-9.407 9.641-7.398 15.822-18.105 17.409-30.153 1.423-10.815-1.101-21.527-6.768-30.401l124.307-44.322 4.711 11.374c1.596 3.851 5.319 6.176 9.243 6.176 1.275 0 2.571-.246 3.823-.764 5.102-2.113 7.525-7.964 5.412-13.066l-4.326-10.445 132.719-47.322z"/><path d="m108 268.276c-.03-.047-.113-.174-.145-.22-3.062-4.593-9.259-5.826-13.854-2.767-4.587 3.054-5.831 9.253-2.795 13.848 1.915 2.942 5.119 4.547 8.392 4.547 1.852 0 3.725-.514 5.397-1.589 4.646-2.987 5.991-9.174 3.005-13.819z"/><path d="m92.791 243.433c-9.745-17.086-18.505-34.968-26.036-53.147-2.113-5.104-7.966-7.524-13.065-5.411-5.103 2.113-7.525 7.963-5.411 13.065 7.85 18.951 16.982 37.591 27.14 55.401 1.845 3.234 5.221 5.048 8.695 5.048 1.68 0 3.383-.424 4.945-1.315 4.797-2.737 6.469-8.844 3.732-13.641z"/><path d="m312.933 127.987c-1.982-.262-3.995-.394-5.983-.394-22.717 0-42.087 17.005-45.055 39.555-3.274 24.868 14.293 47.764 39.161 51.038 1.982.262 3.995.394 5.983.394 22.716 0 42.086-17.005 45.055-39.557 3.273-24.867-14.294-47.762-39.161-51.036zm19.333 48.426c-1.664 12.637-12.509 22.166-25.227 22.166-1.118 0-2.253-.074-3.372-.222-13.935-1.835-23.777-14.664-21.943-28.599 1.664-12.636 12.508-22.164 25.226-22.164 1.118 0 2.253.074 3.372.222 13.934 1.836 23.778 14.664 21.944 28.597z"/><path d="m310.331 252.374c-1.983-.262-3.995-.394-5.983-.394-22.717 0-42.087 17.005-45.055 39.556-1.587 12.047 1.613 23.989 9.01 33.63 7.396 9.64 18.104 15.822 30.151 17.409 1.981.261 3.993.392 5.98.392 22.717 0 42.088-17.005 45.057-39.557 3.275-24.866-14.293-47.76-39.16-51.036zm19.333 48.427c-1.664 12.637-12.51 22.166-25.228 22.166-1.117 0-2.252-.075-3.37-.222-6.75-.89-12.75-4.354-16.895-9.755s-5.938-12.093-5.049-18.844c1.664-12.636 12.509-22.165 25.226-22.165 1.118 0 2.253.074 3.372.222 13.933 1.835 23.777 14.664 21.944 28.598z"/><path d="m244.375 210.946-30.736-4.047c-5.473-.727-10.499 3.133-11.22 8.608-.722 5.476 3.133 10.499 8.608 11.22l30.736 4.047c.443.059.883.087 1.318.087 4.941 0 9.239-3.663 9.901-8.695.723-5.475-3.131-10.499-8.607-11.22z"/><path d="m228.79 284.743-2.714-20.624c-.721-5.476-5.743-9.332-11.219-8.609-5.476.721-9.33 5.743-8.609 11.219l2.715 20.624c.662 5.033 4.959 8.696 9.901 8.696.435 0 .875-.028 1.317-.087 5.476-.721 9.33-5.743 8.609-11.219z"/></g><g id="b" transform="matrix(.12278117 -.04547451 .04547451 .12278117 149.932678 220.158539)"><path d="m228.242 108.792-48.176-12.909c-5.266-1.411-11.173-.242-15.416 3.05-3.227 2.502-5.236 6.047-5.673 9.917l-5.337 19.919c-1.573 3.644-1.586 7.801.006 11.644.524 1.265 1.209 2.463 2.025 3.573-5.1 10.618-10.914 23.713-17.017 38.282-.007.017-.014.033-.021.049-5.331 12.728-10.879 26.572-16.359 40.867-18.682 5.068-42.505 26.934-49.436 52.794l-45.858 171.15c-4.413 16.473 6.424 33.74 24.157 38.491l46.947 12.58s.002 0 .002.001l46.945 12.579c3.054.818 6.156 1.224 9.229 1.224 5.351 0 10.613-1.23 15.372-3.648 7.852-3.99 13.38-10.678 15.565-18.832l6.308-23.543c.001-.003.003-.007.003-.01.001-.003.001-.006.002-.009l39.546-147.587c6.93-25.861-2.77-56.708-16.414-70.439 3.437-21.645 6.295-42.565 8.314-60.632.006-.052.013-.104.018-.157 1.01-9.053 1.807-17.38 2.362-24.725 4.329-2.121 7.763-6.016 9.107-11.027l5.832-21.763c2.425-9.063-2.973-18.411-12.033-20.839zm-62.364 375.552c-.697 2.599-2.581 4.794-5.307 6.179-3.085 1.567-6.766 1.9-10.365.936l-46.944-12.578c-.001 0-.001-.001-.002-.001l-46.947-12.58c-6.961-1.865-11.547-8.275-10.015-13.997l3.723-13.895 119.58 32.042zm8.9-33.212-119.581-32.042 34.373-128.277 119.58 32.042zm38.498-147.877-117.482-31.48c8.671-17.117 26.267-29.503 34.042-29.699 4.061-.102 7.658-2.652 9.099-6.451 5.197-13.704 10.479-27.05 15.591-39.444h47.256c-1.648 13.427-3.697 28.106-6.052 43.269l-2.445-.655c-5.337-1.43-10.818 1.736-12.247 7.071s1.736 10.818 7.071 12.247l11.479 3.076c6.515 5.207 14.69 23.797 13.688 42.066zm2.457-159.31c-.079.001-.157.01-.236.013-.074.002-.146.007-.219.012-.243.015-.484.038-.723.07-.083.011-.165.021-.247.034-.239.038-.475.086-.71.141-.068.016-.138.028-.206.046-.287.074-.57.159-.848.258-.09.032-.177.071-.267.105-.187.073-.373.148-.555.231-.113.052-.223.108-.333.164-.157.079-.311.161-.464.248-.107.061-.214.124-.319.189-.159.098-.313.203-.466.31-.088.062-.177.121-.263.186-.203.152-.399.312-.59.479-.03.026-.062.049-.091.076-.225.202-.439.415-.646.636-.043.046-.082.095-.124.142-.157.175-.309.355-.454.542-.059.076-.115.155-.172.233-.119.162-.233.328-.342.498-.061.095-.121.192-.179.289-.094.158-.182.321-.268.485-.058.111-.116.221-.17.334-.075.16-.143.324-.21.488-.05.121-.104.24-.148.363-.088.242-.165.49-.235.742-.083.299-.15.604-.206.913-.012.065-.03.13-.041.195-.007.042-.008.087-.015.131-.044.302-.079.604-.096.905-.364 6.547-.996 14.238-1.859 22.779h-41.044c5.17-11.881 9.983-22.289 14.13-30.493.131-.26.248-.53.357-.804.019-.049.045-.097.064-.146.02-.054.034-.111.054-.165.11-.304.206-.61.286-.919.065-.253.123-.507.167-.76.022-.124.034-.248.051-.372.025-.184.05-.367.064-.55.01-.117.014-.234.019-.351.009-.196.014-.391.011-.585-.002-.104-.004-.208-.009-.311-.009-.216-.027-.43-.05-.643-.009-.083-.017-.166-.028-.249-.034-.255-.079-.508-.133-.759-.009-.042-.015-.083-.024-.125-.069-.302-.151-.6-.247-.893-.006-.018-.013-.035-.019-.052-.087-.26-.186-.517-.294-.768-.04-.092-.084-.182-.126-.273-.081-.175-.165-.348-.257-.518-.057-.107-.117-.212-.178-.317-.088-.151-.181-.299-.277-.446-.069-.106-.138-.212-.211-.316-.11-.155-.228-.304-.347-.453-.066-.083-.128-.169-.198-.25-.188-.22-.387-.432-.594-.635-.063-.062-.13-.118-.195-.178-.162-.151-.328-.298-.501-.439-.074-.06-.151-.118-.227-.176-.181-.139-.367-.271-.559-.398-.069-.045-.137-.091-.208-.135-.063-.04-.124-.085-.188-.123l4.454-16.606 42.409 11.363z"/><path d="m164.797 231.165-.234-.062c-5.335-1.422-10.816 1.749-12.239 7.085-1.424 5.337 1.748 10.816 7.085 12.239l.234.063c.863.23 1.73.34 2.583.34 4.419 0 8.463-2.953 9.656-7.426 1.423-5.337-1.749-10.816-7.085-12.239z"/><path d="m164.826 352.121c-5.036-8.723-13.167-14.961-22.896-17.568-3.198-.857-6.487-1.292-9.775-1.292-17.024 0-31.993 11.495-36.401 27.953-2.607 9.728-1.27 19.889 3.766 28.611s13.167 14.961 22.895 17.567c3.198.857 6.487 1.291 9.775 1.291 17.023 0 31.993-11.494 36.402-27.953 2.608-9.727 1.27-19.888-3.766-28.609zm-15.551 23.434c-2.071 7.73-9.096 13.128-17.084 13.128-1.541 0-3.088-.205-4.6-.61-4.568-1.224-8.386-4.154-10.75-8.249-2.365-4.096-2.993-8.866-1.768-13.435 2.07-7.73 9.095-13.129 17.083-13.129 1.541 0 3.088.205 4.6.61 4.568 1.224 8.386 4.154 10.751 8.25 2.363 4.096 2.991 8.867 1.768 13.435z"/><path d="m485.012 447.127-45.859-171.149c-6.93-25.862-30.753-47.728-49.435-52.794-5.48-14.295-11.028-28.14-16.359-40.867-.007-.017-.014-.033-.021-.05-6.103-14.569-11.917-27.664-17.018-38.281.815-1.109 1.5-2.308 2.024-3.572 1.593-3.843 1.579-8.001.007-11.645l-5.338-19.919c-.437-3.869-2.445-7.414-5.672-9.916-4.243-3.293-10.15-4.462-15.417-3.05l-48.177 12.908c-4.382 1.175-8.048 3.992-10.322 7.932-2.275 3.941-2.882 8.525-1.707 12.907l5.83 21.764c1.344 5.011 4.778 8.906 9.108 11.026.554 7.341 1.35 15.663 2.359 24.711.006.064.015.128.022.192 2.018 18.061 4.875 38.972 8.311 60.61-13.644 13.73-23.343 44.579-16.414 70.439l45.859 171.148c2.186 8.155 7.714 14.843 15.566 18.832 4.759 2.419 10.021 3.648 15.372 3.648 3.072 0 6.175-.405 9.228-1.224l93.895-25.159c8.372-2.243 15.508-7.357 20.093-14.399 4.807-7.382 6.25-15.937 4.065-24.092zm-187.243-303.043c-.149-.024-.3-.044-.451-.062-.172-.021-.344-.037-.518-.049-.118-.008-.236-.016-.356-.02-.063-.002-.124-.009-.186-.01l-4.449-16.608 42.409-11.36 4.451 16.606c-.064.039-.125.083-.188.123-.071.045-.141.091-.211.137-.19.126-.375.258-.555.395-.077.06-.155.118-.231.179-.17.139-.334.284-.494.433-.066.062-.136.121-.201.184-.205.202-.403.413-.59.631-.073.085-.139.176-.209.264-.115.144-.229.289-.336.438-.076.106-.146.215-.218.325-.094.143-.185.287-.271.435-.063.107-.124.216-.183.326-.09.167-.172.336-.252.507-.044.094-.09.187-.13.282-.105.246-.201.497-.287.751-.008.023-.018.046-.025.069-.096.292-.177.589-.246.889-.01.046-.017.092-.026.138-.053.246-.098.495-.132.746-.011.085-.018.171-.028.256-.023.211-.04.423-.05.637-.005.104-.008.209-.01.314-.002.193.003.386.012.581.005.119.01.236.018.355.015.183.04.365.065.548.017.124.029.249.052.372.047.266.105.531.175.796.072.278.162.554.26.828.026.073.046.15.073.223.012.031.028.061.04.091.116.296.243.585.385.864 4.147 8.203 8.958 18.607 14.127 30.485h-41.043c-.863-8.542-1.496-16.233-1.859-22.779-.017-.303-.052-.608-.097-.913-.006-.041-.008-.082-.014-.122-.011-.066-.029-.132-.042-.198-.053-.294-.114-.586-.192-.871-.073-.268-.156-.53-.25-.787-.041-.114-.091-.224-.137-.337-.071-.175-.144-.35-.224-.519-.05-.105-.105-.208-.159-.312-.09-.173-.183-.344-.281-.511-.055-.092-.111-.182-.168-.272-.112-.175-.23-.346-.353-.513-.056-.076-.109-.153-.167-.227-.142-.183-.291-.359-.444-.531-.048-.053-.092-.108-.14-.16-.201-.215-.41-.422-.628-.618-.075-.068-.156-.129-.233-.195-.142-.12-.283-.239-.432-.35-.124-.095-.254-.182-.383-.271-.105-.071-.209-.142-.316-.209-.15-.095-.304-.186-.46-.273-.086-.048-.173-.093-.26-.139-.175-.091-.351-.18-.531-.261-.055-.024-.11-.045-.165-.069-.605-.258-1.238-.456-1.895-.59-.119-.025-.239-.051-.361-.072zm14.638 117.105 11.478-3.075c5.335-1.429 8.501-6.913 7.071-12.247s-6.915-8.502-12.247-7.071l-2.445.655c-2.354-15.164-4.403-29.844-6.052-43.269h47.257c5.112 12.394 10.395 25.74 15.591 39.444 1.441 3.798 5.037 6.348 9.099 6.45 7.774.196 25.369 12.582 34.04 29.7l-117.482 31.48c-1.002-18.271 7.174-36.861 13.69-42.067zm24.807 189.944-34.372-128.278 119.58-32.042 34.372 128.278zm126.974 9.174c-1.889 2.9-4.91 5.029-8.508 5.993l-93.895 25.159c-3.599.964-7.278.632-10.364-.936-2.726-1.385-4.61-3.579-5.307-6.179l-3.723-13.894 119.58-32.042 3.723 13.895c.696 2.6.162 5.443-1.506 8.004z"/><path d="m359.665 238.178c-1.429-5.334-6.909-8.503-12.246-7.073l-.233.063c-5.335 1.429-8.501 6.912-7.072 12.246 1.196 4.469 5.236 7.416 9.653 7.416.855 0 1.727-.111 2.593-.343l.233-.063c5.335-1.429 8.501-6.912 7.072-12.246z"/><path d="m416.238 361.214c-4.409-16.459-19.379-27.954-36.402-27.954-3.288 0-6.577.435-9.775 1.292-9.729 2.606-17.859 8.845-22.896 17.568-5.035 8.722-6.373 18.883-3.767 28.612 4.41 16.456 19.38 27.951 36.402 27.952h.002c3.287 0 6.576-.435 9.774-1.291 9.728-2.606 17.859-8.845 22.895-17.567 5.036-8.723 6.374-18.884 3.767-28.612zm-21.086 18.611c-2.365 4.096-6.183 7.025-10.75 8.249-1.511.405-3.059.61-4.599.61 0 0 0 0-.001 0-7.987 0-15.014-5.399-17.085-13.128-1.224-4.568-.596-9.339 1.768-13.435 2.365-4.096 6.183-7.025 10.751-8.25 1.511-.405 3.059-.61 4.6-.61 7.987 0 15.013 5.399 17.084 13.13 1.224 4.567.596 9.338-1.768 13.434z"/><path d="m255.996 0c-5.523 0-10 4.477-10 10v26.764c0 5.523 4.477 10 10 10 5.522 0 10-4.477 10-10v-26.764c0-5.523-4.477-10-10-10z"/><path d="m222.552 50.193-13.596-23.178c-2.794-4.764-8.922-6.361-13.685-3.566-4.764 2.794-6.36 8.921-3.566 13.685l13.596 23.178c1.862 3.174 5.203 4.942 8.635 4.942 1.719 0 3.461-.443 5.05-1.376 4.764-2.795 6.36-8.922 3.566-13.685z"/><path d="m316.723 23.449c-4.765-2.795-10.892-1.197-13.686 3.566l-13.596 23.178c-2.794 4.764-1.198 10.891 3.566 13.685 1.59.933 3.331 1.376 5.05 1.376 3.432 0 6.773-1.768 8.636-4.942l13.596-23.178c2.794-4.764 1.197-10.891-3.566-13.685z"/></g><g id="c" transform="matrix(.12519453 .02911501 -.02911501 .12519453 226.403687 30.496746)"><path d="m125.566 84.147c-2.262-5.038-8.179-7.288-13.217-5.027l-.908.411c-5.022 2.297-7.23 8.23-4.934 13.252 1.681 3.674 5.307 5.843 9.099 5.843 1.391 0 2.805-.292 4.153-.909l.779-.353c5.039-2.262 7.29-8.179 5.028-13.217z"/><path d="m90.055 103.628c-3.709-4.093-10.033-4.402-14.124-.694-22.836 20.697-35.934 50.244-35.934 81.064 0 23.261 8.571 45.593 24.134 62.883 1.975 2.193 4.7 3.31 7.435 3.31 2.383 0 4.776-.847 6.686-2.567 4.104-3.695 4.437-10.017.742-14.122-12.252-13.612-18.999-31.192-18.999-49.504 0-25.187 10.703-49.332 29.366-66.247 4.091-3.707 4.402-10.031.694-14.123z"/><path d="m458.713 218.911c-4.813-2.698-10.981-1.035-13.687 3.771-2.706 4.808-.925 10.943 3.877 13.657.019.011.039.022.058.033 1.552.863 3.242 1.274 4.911 1.274 3.517 0 6.938-1.825 8.763-5.091 2.689-4.816.889-10.946-3.922-13.644z"/><path d="m492.505 248.181c-3.313-4.419-9.58-5.319-13.998-2.005-4.419 3.312-5.317 9.579-2.005 13.998 9.995 13.336 15.499 29.86 15.499 46.528 0 16.884-6.221 33.092-17.519 45.642l-.572.636c-6.416 7.128-15.464 11.347-24.818 11.574-.417.011-.831.011-1.231.008-.12-.002-.37-.005-.631-.293-.154-.17-.404-.545-.352-1.143.118-1.343.177-2.713.177-4.071 0-14.513-6.166-28.425-16.92-38.171-6.509-5.898-14.08-10.223-22.503-12.853-3.034-.946-6.341-.395-8.903 1.49-2.563 1.884-4.076 4.875-4.076 8.055v27.963c0 17.03 2.354 33.974 6.994 50.358 4.139 14.613 6.237 29.724 6.237 44.91 0 13.33-10.845 24.175-24.175 24.175h-9.443c-13.33 0-24.175-10.845-24.175-24.175 0-15.064 2.065-30.055 6.138-44.556 4.708-16.764 7.094-33.516 7.094-49.792v-28.884c0-3.181-1.513-6.172-4.076-8.055-2.563-1.885-5.867-2.439-8.903-1.49-8.422 2.63-15.994 6.953-22.503 12.853-10.753 9.745-16.921 23.658-16.921 38.171 0 1.289.054 2.594.161 3.877.059.705-.268 1.146-.411 1.302-.298.326-.572.328-.627.329l-.333.001c-9.671 0-18.928-4.123-25.397-11.309l-.821-.913c-11.295-12.546-17.516-28.755-17.516-45.638 0-20.723 8.07-40.206 22.722-54.859l3.235-3.234c15.885-15.886 37.006-24.634 59.471-24.634h50.596c2.249 0 4.527.081 6.77.241 5.518.407 10.292-3.755 10.684-9.263.393-5.509-3.755-10.292-9.263-10.684-2.714-.193-5.47-.292-8.19-.292h-50.594c-27.808 0-53.951 10.829-73.612 30.492l-3.235 3.234c-6.697 6.697-12.296 14.201-16.717 22.286-16.961-6.502-34.739-9.805-52.861-9.805-27.364 0-54.145 7.58-77.449 21.922l-.907.558c-9.464 5.825-20.341 8.903-31.455 8.903-16.984 0-33.242-7.239-44.605-19.862l-1.299-1.442c-18.874-20.968-29.27-48.052-29.27-76.264 0-36.454 15.492-71.402 42.503-95.882 29.243-26.503 67.082-41.099 106.548-41.099h71.868c39.466 0 77.306 14.596 106.548 41.099 24.496 22.201 39.443 52.573 42.088 85.52.441 5.505 5.265 9.608 10.767 9.166 5.505-.442 9.609-5.263 9.166-10.767-3.054-38.04-20.311-73.106-48.592-98.738-32.928-29.844-75.537-46.279-119.977-46.279h-71.868c-44.44 0-87.049 16.436-119.977 46.279-31.185 28.264-49.071 68.612-49.071 110.7 0 33.161 12.219 64.997 34.405 89.642l1.299 1.442c15.15 16.83 36.826 26.481 59.469 26.481 14.817 0 29.319-4.105 41.936-11.87l.907-.558c2.036-1.253 4.111-2.43 6.206-3.563v15.621c0 18.753-4.208 37.642-12.17 54.623-9.199 19.618-14.062 41.443-14.062 63.112 0 36.422 29.632 66.054 66.054 66.054h42.112c36.422 0 66.054-29.632 66.054-66.054 0-13.275-1.833-26.606-5.363-39.455 7.093 3.304 14.888 5.089 22.866 5.089l.409-.001c5.89-.046 11.329-2.475 15.317-6.84 4.042-4.427 6.075-10.419 5.575-16.444-.062-.735-.092-1.483-.092-2.222 0-8.878 3.773-17.391 10.352-23.352.668-.605 1.353-1.187 2.054-1.742v12.499c0 14.449-2.136 29.383-6.349 44.385-4.567 16.262-6.882 33.07-6.882 49.963 0 24.357 19.815 44.173 44.173 44.173h9.443c24.357 0 44.173-19.815 44.173-44.173 0-17.03-2.354-33.974-6.994-50.36-4.139-14.612-6.237-29.722-6.237-44.908v-11.578c.701.556 1.386 1.137 2.054 1.741 6.578 5.963 10.351 14.475 10.351 23.352 0 .778-.034 1.562-.102 2.331-.52 5.964 1.467 11.906 5.451 16.306 3.945 4.356 9.346 6.794 15.222 6.866.646.008 1.289.004 1.946-.012 14.833-.36 29.122-6.989 39.203-18.189l.572-.636c14.604-16.228 22.648-37.187 22.648-59.02 0-20.963-6.923-41.747-19.495-58.521zm-266.35 216.803h-42.112c-25.395 0-46.055-20.66-46.055-46.055 0-18.755 4.208-37.643 12.17-54.623 9.199-19.619 14.062-41.444 14.062-63.112v-24.319c13.074-4.403 26.829-6.693 40.764-6.693 15.461 0 30.636 2.785 45.131 8.264-2.723 9.047-4.135 18.544-4.135 28.257 0 6.326.696 12.574 2.011 18.659 2.228 13.46 6.281 26.637 12.051 38.945 7.961 16.98 12.169 35.868 12.169 54.623 0 25.394-20.661 46.054-46.056 46.054z"/></g><g id="d" transform="matrix(.11718018 0 0 .11718018 294 290)"><path d="m508.743 248.959-70.976-122.935c-1.835-3.178-4.319-5.84-7.234-7.865 1.265-5.003 2.23-10.086 2.881-15.194l.563-4.414c1.249-9.806-3.476-19.335-12.036-24.277l-122.935-70.976c-7.109-4.104-15.743-4.377-23.097-.731s-12.364 10.684-13.401 18.826c-3.012 23.646-15.622 45.484-34.594 59.916l-6.261 4.762c-27.094 20.609-45.102 51.796-49.404 85.565-3.626 28.461-18.792 54.748-41.616 72.131-.023.017-.045.034-.068.052-16.842 12.81-30.302 29.731-39.032 48.999-1.893 2.162-3.721 4.387-5.467 6.682l-4.746 6.239c-14.438 18.979-36.285 31.591-59.94 34.604-8.143 1.037-15.181 6.047-18.827 13.401-3.646 7.354-3.372 15.989.732 23.097l70.975 122.934c4.416 7.647 12.493 12.233 21.156 12.233 1.033 0 2.075-.065 3.12-.198l4.43-.564c16.258-2.071 31.912-7.326 46.082-15.235l22.028 12.718c3.813 2.201 8.033 3.288 12.237 3.288 5.233 0 10.441-1.685 14.804-5.003l3.555-2.704c26.262-19.976 43.986-49.89 48.968-82.464 3.358-.766 6.759-1.375 10.193-1.812 33.769-4.301 64.957-22.306 85.568-49.4 2.169-2.852 4.507-5.625 6.949-8.244 3.766-4.04 3.545-10.367-.494-14.134-4.04-3.767-10.367-3.544-14.134.494-2.895 3.104-5.667 6.394-8.24 9.776-17.385 22.853-43.691 38.041-72.19 41.67-33.769 4.3-64.957 22.305-85.572 49.406l-.103.136c-17.385 22.853-43.691 38.041-72.176 41.668l-4.43.564c-1.789.229-3.527-.635-4.429-2.196l-15.945-27.617c33.409-4.512 64.213-22.426 84.637-49.274l.103-.136c17.385-22.854 43.691-38.041 72.191-41.67 33.769-4.3 64.958-22.306 85.567-49.4 17.385-22.854 43.692-38.041 72.182-41.668l.186-.024c33.452-4.26 64.365-21.975 84.977-48.644l15.945 27.618c.902 1.562.779 3.498-.313 4.933l-2.694 3.542c-17.384 22.854-43.691 38.041-72.178 41.669l-.191.024c-5.479.699-9.353 5.706-8.654 11.185s5.708 9.355 11.185 8.654l.189-.024c33.77-4.301 64.958-22.306 85.567-49.399l2.694-3.542c5.982-7.867 6.655-18.482 1.713-27.042zm-320.205 212.881.103-.136c10.56-13.881 24.415-24.927 40.05-32.28-6.035 23.304-19.856 44.309-39.128 58.968l-3.554 2.703c-1.437 1.091-3.374 1.214-4.934.313l-13.617-7.862c7.825-6.345 14.926-13.616 21.08-21.706zm225.598-365.816-.563 4.414c-.602 4.728-1.53 9.428-2.755 14.044-5.393 1.303-10.25 4.419-13.707 8.964-14.257 18.742-35.747 31.256-59.063 34.46 25.173-20.388 41.929-50.113 46.275-82.255l27.618 15.945c1.561.901 2.423 2.639 2.195 4.428zm-48.582-31.21-.937 7.359c-3.629 28.484-18.818 54.791-41.675 72.176l-.151.115c-8.324 6.331-15.826 13.67-22.358 21.824-22.261 8.447-42.07 23.029-56.61 42.143-1.556 2.045-3.186 4.027-4.88 5.947.882-3.93 1.589-7.914 2.102-11.948 3.629-28.484 18.818-54.791 41.675-72.176l.15-.114c26.84-20.415 44.754-51.212 49.271-84.615zm-173.466 109.349c3.629-28.484 18.818-54.791 41.672-72.174l6.261-4.762c23.213-17.656 38.641-44.375 42.326-73.306.263-2.064 1.645-3.038 2.445-3.435.801-.397 2.412-.907 4.214.133l24.366 14.068-.937 7.359c-3.629 28.484-18.818 54.791-41.675 72.176l-.151.115c-27.095 20.609-45.102 51.796-49.404 85.565-1.724 13.533-5.92 26.411-12.479 38.324-11.477 6.127-24.055 10.214-37.095 11.875-8.077 1.029-16.004 2.85-23.676 5.383 24.151-20.519 40.116-49.793 44.133-81.321zm-171.617 188.464c.396-.8 1.371-2.182 3.435-2.445 28.94-3.686 55.668-19.116 73.331-42.335l4.746-6.239c17.384-22.853 43.691-38.041 72.19-41.67 16.089-2.049 31.589-7.215 45.641-14.987.714-.297 1.394-.678 2.028-1.138 14.614-8.429 27.582-19.713 37.898-33.275 17.385-22.854 43.692-38.042 72.176-41.669l7.804-.994c28.931-3.685 55.651-19.11 73.308-42.322 1.259-1.655 2.941-1.811 3.834-1.752.892.057 2.542.42 3.583 2.223l14.068 24.366-4.491 5.904c-17.385 22.854-43.692 38.042-72.157 41.667l-.21.026c-33.77 4.301-64.958 22.306-85.568 49.4-17.384 22.854-43.691 38.042-72.191 41.67-33.77 4.301-64.958 22.306-85.562 49.393l-.113.148c-17.384 22.853-43.691 38.041-72.176 41.668l-7.374.939-14.067-24.365c-1.04-1.802-.53-3.413-.133-4.213zm439.679-144.151c-17.384 22.854-43.692 38.041-72.181 41.669l-.186.024c-33.77 4.3-64.958 22.306-85.568 49.4-17.385 22.854-43.692 38.041-72.191 41.67-33.769 4.301-64.958 22.306-85.572 49.406l-.103.136c-17.384 22.853-43.691 38.041-72.176 41.668l-7.374.939-19.291-33.413c33.409-4.512 64.213-22.426 84.626-49.262l.113-.148c17.384-22.854 43.692-38.041 72.191-41.67 33.769-4.3 64.958-22.306 85.567-49.4 17.384-22.853 43.692-38.041 72.157-41.666l.21-.026c33.451-4.26 64.364-21.974 84.977-48.643l19.291 33.414z"/><path d="m378.547 320.947c-2.63 0-5.21 1.07-7.07 2.93s-2.93 4.44-2.93 7.07 1.07 5.21 2.93 7.07 4.44 2.93 7.07 2.93c2.64 0 5.21-1.07 7.07-2.93 1.87-1.86 2.93-4.44 2.93-7.07s-1.06-5.21-2.93-7.07c-1.86-1.861-4.431-2.93-7.07-2.93z"/></g><g id="e" transform="matrix(.13658373 -.01422747 .01422747 .13658373 58.353432 -12.071168)"><path d="m448.235 202.366c-1.779-.89-3.839-1.037-5.726-.407l-198.699 66.232 66.233-198.698c.629-1.888.482-3.947-.407-5.727-.89-1.779-2.45-3.132-4.337-3.761-23.712-7.901-48.39-11.907-73.347-11.907-61.957 0-120.205 24.127-164.015 67.937s-67.937 102.058-67.937 164.015 24.127 120.205 67.937 164.014c43.81 43.81 102.058 67.938 164.015 67.938s120.205-24.127 164.015-67.938c43.81-43.81 67.937-102.058 67.937-164.014 0-24.958-4.006-49.635-11.908-73.347-.629-1.888-1.982-3.447-3.761-4.337zm-62.875 231.092c-40.977 40.977-95.458 63.544-153.408 63.544s-112.431-22.567-153.408-63.544-63.544-95.458-63.544-153.408 22.567-112.431 63.543-153.408c40.977-40.977 95.458-63.544 153.408-63.544 20.842 0 41.478 2.988 61.448 8.889l-5.401 16.203c-18.222-5.326-37.04-8.027-56.047-8.027-110.218 0-199.887 89.669-199.887 199.887s89.669 199.887 199.887 199.887c60.983 0 117.858-27.32 156.044-74.956 2.591-3.232 2.071-7.952-1.161-10.542-3.232-2.592-7.953-2.071-10.543 1.161-35.323 44.065-87.933 69.337-144.34 69.337-101.947 0-184.887-82.94-184.887-184.887s82.94-184.887 184.887-184.887c17.393 0 34.615 2.441 51.302 7.264l-58.417 175.251c-.898 2.695-.197 5.666 1.812 7.675s4.98 2.711 7.675 1.812l175.251-58.417c4.823 16.688 7.264 33.91 7.264 51.302 0 31.356-7.99 62.329-23.105 89.57-2.01 3.622-.703 8.188 2.919 10.197 1.153.64 2.401.943 3.632.943 2.637 0 5.195-1.394 6.565-3.863 16.348-29.462 24.989-62.951 24.989-96.848 0-19.007-2.701-37.825-8.028-56.048l16.203-5.401c5.901 19.97 8.889 40.605 8.889 61.449.001 57.951-22.566 112.432-63.542 153.409z"/><path d="m511.615 147.084c-22.958-68.9-77.798-123.74-146.697-146.698-3.929-1.308-8.176.814-9.486 4.744l-70.976 212.929c-.898 2.694-.197 5.666 1.812 7.675 1.43 1.43 3.346 2.197 5.304 2.197.793 0 1.594-.126 2.371-.385l182.509-60.836h.001c.001 0 .002 0 .003-.001l30.416-10.139c3.929-1.31 6.053-5.557 4.743-9.486zm-32.923 3.067c-13.527-36.074-36.992-67.193-68.209-90.338-3.328-2.468-8.025-1.77-10.491 1.558-2.467 3.327-1.77 8.024 1.558 10.491 28.729 21.301 50.359 49.896 62.901 83.037l-161.021 53.673 53.668-161.003c5.386 2.044 10.699 4.33 15.856 6.863 1.064.522 2.191.77 3.301.77 2.77 0 5.434-1.541 6.737-4.195 1.826-3.718.292-8.212-3.426-10.038-5.759-2.829-11.695-5.388-17.718-7.652l5.401-16.203c58.772 21.905 105.734 68.867 127.639 127.64z"/><path d="m191.355 199.889c0-3.347-.42-6.674-1.248-9.89-1.034-4.011-5.124-6.425-9.134-5.392-4.011 1.033-6.425 5.122-5.393 9.133.514 1.995.774 4.063.774 6.148 0 13.545-11.02 24.564-24.564 24.564s-24.565-11.02-24.565-24.564 11.02-24.565 24.565-24.565c2.09 0 4.164.262 6.163.778 4.009 1.037 8.101-1.376 9.136-5.388 1.035-4.011-1.377-8.101-5.388-9.136-3.223-.832-6.558-1.254-9.911-1.254-21.816 0-39.565 17.749-39.565 39.565s17.749 39.564 39.565 39.564c21.816.001 39.565-17.747 39.565-39.563z"/><path d="m376.758 135.76c0 12.976 10.557 23.532 23.532 23.532s23.532-10.557 23.532-23.532-10.557-23.532-23.532-23.532-23.532 10.556-23.532 23.532zm23.533-8.533c4.705 0 8.532 3.828 8.532 8.532 0 4.705-3.828 8.532-8.532 8.532s-8.532-3.827-8.532-8.532c-.001-4.704 3.827-8.532 8.532-8.532z"/><path d="m280.048 344.695c-17.396 0-31.548 14.153-31.548 31.549s14.152 31.548 31.548 31.548 31.548-14.152 31.548-31.548c.001-17.396-14.152-31.549-31.548-31.549zm0 48.097c-9.125 0-16.548-7.423-16.548-16.548s7.423-16.549 16.548-16.549 16.548 7.424 16.548 16.549c.001 9.124-7.423 16.548-16.548 16.548z"/><path d="m159.807 304.614c-17.396 0-31.548 14.153-31.548 31.548 0 17.396 14.152 31.549 31.548 31.549s31.548-14.153 31.548-31.549c0-17.395-14.152-31.548-31.548-31.548zm0 48.098c-9.125 0-16.548-7.424-16.548-16.549s7.423-16.548 16.548-16.548 16.548 7.423 16.548 16.548-7.423 16.549-16.548 16.549z"/><path d="m375.726 296.082c0-12.976-10.557-23.532-23.532-23.532s-23.532 10.557-23.532 23.532 10.557 23.532 23.532 23.532 23.532-10.556 23.532-23.532zm-23.533 8.532c-4.705 0-8.532-3.828-8.532-8.532s3.828-8.532 8.532-8.532 8.532 3.828 8.532 8.532-3.827 8.532-8.532 8.532z"/><path d="m207.903 392.792c-12.976 0-23.532 10.557-23.532 23.532s10.557 23.532 23.532 23.532 23.532-10.557 23.532-23.532-10.556-23.532-23.532-23.532zm0 32.064c-4.705 0-8.532-3.827-8.532-8.532 0-4.704 3.828-8.532 8.532-8.532s8.532 3.828 8.532 8.532c.001 4.705-3.827 8.532-8.532 8.532z"/><path d="m355.547 137.068c-3.705-1.852-8.21-.35-10.062 3.354l-8.016 16.032c-1.853 3.705-.351 8.21 3.354 10.063 1.077.538 2.221.793 3.348.793 2.751 0 5.4-1.52 6.714-4.148l8.016-16.032c1.853-3.705.351-8.21-3.354-10.062z"/><path d="m381.545 82.36-8.016-8.017c-2.929-2.929-7.678-2.929-10.606 0-2.929 2.929-2.929 7.678 0 10.606l8.016 8.017c1.464 1.464 3.384 2.196 5.303 2.196s3.839-.732 5.303-2.196c2.929-2.929 2.929-7.677 0-10.606z"/><path d="m196.533 142.468 16.032 8.016c1.077.538 2.221.793 3.348.793 2.751 0 5.4-1.52 6.714-4.148 1.853-3.705.351-8.209-3.354-10.062l-16.032-8.016c-3.705-1.853-8.21-.351-10.062 3.354-1.852 3.706-.351 8.21 3.354 10.063z"/><path d="m247.984 143.26c4.142 0 7.5-3.357 7.5-7.5v-8.016c0-4.143-3.358-7.5-7.5-7.5s-7.5 3.357-7.5 7.5v8.016c0 4.142 3.358 7.5 7.5 7.5z"/><path d="m76.291 254.694 16.032 8.016c1.077.539 2.221.794 3.348.794 2.751 0 5.4-1.52 6.714-4.148 1.853-3.705.351-8.209-3.354-10.062l-16.032-8.017c-3.705-1.853-8.21-.351-10.062 3.354-1.853 3.706-.351 8.211 3.354 10.063z"/><path d="m128.258 272.034v8.016c0 4.142 3.358 7.5 7.5 7.5s7.5-3.358 7.5-7.5v-8.016c0-4.142-3.358-7.5-7.5-7.5s-7.5 3.358-7.5 7.5z"/><path d="m216.436 199.889v8.016c0 4.142 3.358 7.5 7.5 7.5s7.5-3.358 7.5-7.5v-8.016c0-4.142-3.358-7.5-7.5-7.5s-7.5 3.358-7.5 7.5z"/><path d="m181.142 258.715c-2.929-2.929-7.678-2.929-10.606 0-2.929 2.929-2.929 7.678 0 10.606l8.016 8.016c1.464 1.464 3.384 2.197 5.303 2.197s3.839-.732 5.303-2.197c2.929-2.929 2.929-7.677 0-10.606z"/><path d="m92.964 298.795c-2.929-2.929-7.678-2.929-10.606 0l-8.016 8.016c-2.929 2.929-2.929 7.678 0 10.606 1.464 1.465 3.384 2.197 5.303 2.197s3.839-.732 5.303-2.197l8.016-8.016c2.93-2.929 2.93-7.677 0-10.606z"/><path d="m103.693 344.695h-8.016c-4.142 0-7.5 3.358-7.5 7.5 0 4.143 3.358 7.5 7.5 7.5h8.016c4.142 0 7.5-3.357 7.5-7.5 0-4.142-3.358-7.5-7.5-7.5z"/><path d="m234.665 314.828-8.016 8.016c-2.929 2.929-2.929 7.678 0 10.606 1.464 1.465 3.384 2.197 5.303 2.197s3.839-.732 5.303-2.197l8.016-8.016c2.929-2.929 2.929-7.678 0-10.606-2.929-2.93-7.678-2.93-10.606 0z"/><path d="m207.903 360.727c-4.142 0-7.5 3.358-7.5 7.5 0 4.143 3.358 7.5 7.5 7.5h8.016c4.142 0 7.5-3.357 7.5-7.5 0-4.142-3.358-7.5-7.5-7.5z"/><path d="m151.791 392.792c-4.142 0-7.5 3.358-7.5 7.5v8.017c0 4.142 3.358 7.5 7.5 7.5s7.5-3.358 7.5-7.5v-8.017c0-4.142-3.358-7.5-7.5-7.5z"/><path d="m272.032 424.856h-8.016c-4.142 0-7.5 3.358-7.5 7.5 0 4.143 3.358 7.5 7.5 7.5h8.016c4.142 0 7.5-3.357 7.5-7.5 0-4.141-3.358-7.5-7.5-7.5z"/><path d="m296.081 327.631c4.142 0 7.5-3.357 7.5-7.5v-16.032c0-4.142-3.358-7.5-7.5-7.5s-7.5 3.358-7.5 7.5v16.032c0 4.142 3.357 7.5 7.5 7.5z"/><path d="m349.48 354.908c-2.929-2.929-7.678-2.929-10.606 0-2.929 2.929-2.929 7.678 0 10.606l8.016 8.017c1.464 1.464 3.384 2.196 5.303 2.196s3.839-.732 5.303-2.196c2.929-2.929 2.929-7.678 0-10.606z"/><path d="m384.258 328.663h-8.017c-4.142 0-7.5 3.358-7.5 7.5 0 4.143 3.358 7.5 7.5 7.5h8.017c4.142 0 7.5-3.357 7.5-7.5 0-4.142-3.358-7.5-7.5-7.5z"/><path d="m399.774 272.034v-8.016c0-4.142-3.358-7.5-7.5-7.5s-7.5 3.358-7.5 7.5v8.016c0 4.142 3.358 7.5 7.5 7.5s7.5-3.358 7.5-7.5z"/></g><g id="f" transform="matrix(.28124121 0 0 .28124121 103.000008 113)"><path d="m61.899 110.52c-10.137 0-18.384 7.985-18.384 17.797 0 9.811 8.247 17.792 18.384 17.792s18.383-7.981 18.383-17.792c0-9.813-8.247-17.797-18.383-17.797zm0 28.841c-6.415 0-11.634-4.954-11.634-11.042 0-6.091 5.219-11.047 11.634-11.047s11.633 4.955 11.633 11.047c0 6.089-5.219 11.042-11.633 11.042z"/><path d="m99.42 52.066c-9.2 0-16.407 5.56-16.407 12.658s7.207 12.659 16.407 12.659 16.407-5.561 16.407-12.659c0-7.097-7.207-12.658-16.407-12.658zm0 18.567c-5.144 0-9.657-2.761-9.657-5.909 0-2.794 3.966-5.908 9.657-5.908s9.657 3.114 9.657 5.908c0 3.148-4.512 5.909-9.657 5.909z"/><path d="m61.899 110.52c-10.137 0-18.384 7.985-18.384 17.797 0 9.811 8.247 17.792 18.384 17.792s18.383-7.981 18.383-17.792c0-9.813-8.247-17.797-18.383-17.797zm0 28.841c-6.415 0-11.634-4.954-11.634-11.042 0-6.091 5.219-11.047 11.634-11.047s11.633 4.955 11.633 11.047c0 6.089-5.219 11.042-11.633 11.042z"/><path d="m211.74 75.599c-.27-.693-1.484-3.584-3.909-6.143-17.343-18.326-38.353-31.268-62.444-38.466-13.636-4.074-27.657-6.14-41.677-6.14-2.832 0-5.378.846-7.178 2.387-.814.701-43.477 36.914-51.898 44.045-1.146.975-1.924 2.007-2.31 3.069-.616 1.694.208 3.572 1.87 4.267 2.467 1.031 3.76 2.712 3.76 4.037 0 1.415-1.349 2.828-3.899 3.842-1.851.734-4.013 1.122-6.25 1.122-1.926 0-3.823-.292-5.484-.844-.044-.015-1.526-.586-2.698-.586-1.621 0-3.212.654-4.727 1.943-.282.24-1.096.905-2.232 1.833-8.66 7.08-14.747 12.166-16.307 13.979-1.918 2.227-3.024 4-3.401 4.641-.753 1.02-2.956 4.483-2.956 10.07v17.395c0 3.512 2.343 5.084 4.666 5.084.466 0 .854-.059 1.111-.096l.126-.019c.216-.033.453-.05.705-.05 3.144 0 5.703 2.74 5.703 6.109 0 3.363-2.558 6.1-5.703 6.1-.22 0-.44-.014-.635-.037-.216-.029-.439-.043-.664-.043-2.61 0-5.309 1.927-5.309 5.152v24.189c0 3.449 2.577 6.051 5.994 6.051.403 0 .817-.037 1.227-.107 2.521-.437 89.258-15.065 146.653-24.746 26.15-4.411 47.25-7.969 53.904-9.094 2.324-.365 5.095-1.711 5.095-6.049 0-.191.017-2.093.045-5.158.114-12.705.421-46.454.421-59.952.004-3.59-1.319-7.088-1.599-7.785zm-184.801 19.593c1.187-.971 2.038-1.667 2.334-1.919.173-.147.785-.138.918-.094 2.341.778 4.974 1.19 7.615 1.19 3.08 0 6.101-.552 8.741-1.598 5.296-2.107 8.458-5.948 8.458-10.273 0-2.651-1.234-5.141-3.448-7.156-.203-.185-.564-.598-.056-1.031 11.671-9.929 48.531-41.18 49.43-41.954.553-.474 1.592-.757 2.779-.757 22.035 0 64.227 5.521 99.22 42.498.063.067.125.135.187.203l-3.077.525-59.155 9.809c-3.054-2.038-6.916-3.185-10.836-3.185-.851 0-1.708.053-2.55.159-4.471.56-10.477 1.957-13.293 7.45l-99.762 16.543c3.802-3.303 9.996-8.366 12.495-10.41zm110.957-4.381c1.27 1.038 2.783 2.837 2.783 5.51 0 5.653-4.777 10.252-10.648 10.252s-10.647-4.599-10.647-10.252c-.002-1.906.15-2.206.435-3.22.64-2.016 2.113-3.992 8.517-4.794.563-.07 1.14-.106 1.711-.106 2.961 0 5.821.951 7.847 2.609v.001zm68.277 52.466c-.021 2.272-.035 3.912-.042 4.702-7.257 1.225-27.925 4.711-53.375 9.003-58.409 9.851-137.539 23.198-146.002 24.635v-21.687c6.801-.079 12.31-5.813 12.31-12.85 0-7.041-5.509-12.779-12.31-12.859v-17.364c0-2.413.627-2.701 2.434-3.317l103.445-17.377v.158c0 9.375 7.805 17.002 17.396 17.002 9.595 0 17.359-7.627 17.399-17.002.015-3.408-1.259-5.676-1.278-5.716l54.977-9.117 5.12-.804c.195.866.346 1.821.346 2.703 0 13.467-.306 47.194-.42 59.89z"/><path d="m99.42 52.066c-9.2 0-16.407 5.56-16.407 12.658-.001 7.098 7.206 12.659 16.407 12.659 9.2 0 16.407-5.561 16.407-12.659 0-7.097-7.207-12.658-16.407-12.658zm0 18.567c-5.145 0-9.657-2.761-9.657-5.909-.001-2.794 3.965-5.908 9.657-5.908 5.691 0 9.657 3.114 9.657 5.908 0 3.148-4.513 5.909-9.657 5.909z"/></g><pattern id="g" height="350" patternUnits="userSpaceOnUse" width="350"><use x="-350" xlink:href="#a" y="-350"/><use xlink:href="#a" y="-350"/><use x="350" xlink:href="#a" y="-350"/><use x="-350" xlink:href="#a"/><use xlink:href="#a"/><use x="350" xlink:href="#a"/><use x="-350" xlink:href="#a" y="350"/><use xlink:href="#a" y="350"/><use x="350" xlink:href="#a" y="350"/></pattern><pattern id="h" height="350" patternUnits="userSpaceOnUse" width="350"><use x="-350" xlink:href="#b" y="-350"/><use xlink:href="#b" y="-350"/><use x="350" xlink:href="#b" y="-350"/><use x="-350" xlink:href="#b"/><use xlink:href="#b"/><use x="350" xlink:href="#b"/><use x="-350" xlink:href="#b" y="350"/><use xlink:href="#b" y="350"/><use x="350" xlink:href="#b" y="350"/></pattern><pattern id="i" height="350" patternUnits="userSpaceOnUse" width="350"><use x="-350" xlink:href="#c" y="-350"/><use xlink:href="#c" y="-350"/><use x="350" xlink:href="#c" y="-350"/><use x="-350" xlink:href="#c"/><use xlink:href="#c"/><use x="350" xlink:href="#c"/><use x="-350" xlink:href="#c" y="350"/><use xlink:href="#c" y="350"/><use x="350" xlink:href="#c" y="350"/></pattern><pattern id="j" height="350" patternUnits="userSpaceOnUse" width="350"><use x="-350" xlink:href="#d" y="-350"/><use xlink:href="#d" y="-350"/><use x="350" xlink:href="#d" y="-350"/><use x="-350" xlink:href="#d"/><use xlink:href="#d"/><use x="350" xlink:href="#d"/><use x="-350" xlink:href="#d" y="350"/><use xlink:href="#d" y="350"/><use x="350" xlink:href="#d" y="350"/></pattern><pattern id="k" height="350" patternUnits="userSpaceOnUse" width="350"><use x="-350" xlink:href="#e" y="-350"/><use xlink:href="#e" y="-350"/><use x="350" xlink:href="#e" y="-350"/><use x="-350" xlink:href="#e"/><use xlink:href="#e"/><use x="350" xlink:href="#e"/><use x="-350" xlink:href="#e" y="350"/><use xlink:href="#e" y="350"/><use x="350" xlink:href="#e" y="350"/></pattern><pattern id="l" height="350" patternUnits="userSpaceOnUse" width="350"><use x="-350" xlink:href="#f" y="-350"/><use xlink:href="#f" y="-350"/><use x="350" xlink:href="#f" y="-350"/><use x="-350" xlink:href="#f"/><use xlink:href="#f"/><use x="350" xlink:href="#f"/><use x="-350" xlink:href="#f" y="350"/><use xlink:href="#f" y="350"/><use x="350" xlink:href="#f" y="350"/></pattern></defs>

<rect fill="url(#g)" height="100%" width="100%"/><rect fill="url(#h)" height="100%" width="100%"/><rect fill="url(#i)" height="100%" width="100%"/><rect fill="url(#j)" height="100%" width="100%"/><rect fill="url(#k)" height="100%" width="100%"/><rect fill="url(#l)" height="100%" width="100%"/></svg>
